# xmcd
#
# Track frame offsets: 
#        150
#        20050
#        39987
#        56970
#        71102
#        93765
#        112510
#        130765
#        148302
#        172832
#
# Disc length: 2568 seconds
#
# Revision: 1
# Processed by: cddbd v1.5.1PL2 Copyright (c) Steve Scherf et al.
# Submitted via: ExactAudioCopy v0.95b4
#
DISCID=840a060a
DTITLE=LITTLE CREATURES - NIGHT PEOPLE
DYEAR=2005
DGENRE=post rock
TTITLE0=Night People
TTITLE1=Turquoise Sea
TTITLE2=Stealthily
TTITLE3=Ladybug
TTITLE4=Four In The Morning
TTITLE5=Eight Bites
TTITLE6=Oblivion
TTITLE7=Sun Dance Round The Tree
TTITLE8=Shadow Pictures
TTITLE9=Morning People
EXTD=YEAR: 2005
EXTT0=
EXTT1=
EXTT2=
EXTT3=
EXTT4=
EXTT5=
EXTT6=
EXTT7=
EXTT8=
EXTT9=
PLAYORDER=
